<?xml version="1.0" encoding="UTF-8" standalone="no"?>
<!DOCTYPE svg PUBLIC "-//W3C//DTD SVG 1.1//EN"
 "http://www.w3.org/Graphics/SVG/1.1/DTD/svg11.dtd">
<!-- Generated by graphviz version 2.47.0 (20210316.0004)
 -->
<!-- Title: dependencies Pages: 1 -->
<svg width="870pt" height="349pt"
 viewBox="0.00 0.00 870.00 349.00" xmlns="http://www.w3.org/2000/svg" xmlns:xlink="http://www.w3.org/1999/xlink">
<g id="graph0" class="graph" transform="scale(1 1) rotate(0) translate(4 345)">
<title>dependencies</title>
<polygon fill="white" stroke="transparent" points="-4,4 -4,-345 866,-345 866,4 -4,4"/>
<text text-anchor="start" x="410.01" y="-42.4" font-family="sans-serif" font-weight="bold" font-size="14.00">Legend</text>
<polygon fill="#ffffb3" stroke="transparent" points="197,-10 197,-30 217,-30 217,-10 197,-10"/>
<text text-anchor="start" x="220.63" y="-15.4" font-family="sans-serif" font-size="14.00"> &#160;Declarations</text>
<polygon fill="#8dd3c7" stroke="transparent" points="310,-10 310,-30 330,-30 330,-10 310,-10"/>
<text text-anchor="start" x="333.73" y="-15.4" font-family="sans-serif" font-size="14.00"> &#160;Module</text>
<polygon fill="#80b1d3" stroke="transparent" points="396,-10 396,-30 416,-30 416,-10 396,-10"/>
<text text-anchor="start" x="419.78" y="-15.4" font-family="sans-serif" font-size="14.00"> &#160;Bootstrap</text>
<polygon fill="#fdb462" stroke="transparent" points="493,-10 493,-30 513,-30 513,-10 493,-10"/>
<text text-anchor="start" x="516.67" y="-15.4" font-family="sans-serif" font-size="14.00"> &#160;Providers</text>
<polygon fill="#fb8072" stroke="transparent" points="589,-10 589,-30 609,-30 609,-10 589,-10"/>
<text text-anchor="start" x="612.73" y="-15.4" font-family="sans-serif" font-size="14.00"> &#160;Exports</text>
<g id="clust1" class="cluster">
<title>cluster_NgSmartLibModule</title>
<polygon fill="none" stroke="black" stroke-dasharray="1,5" points="8,-70 8,-333 854,-333 854,-70 8,-70"/>
</g>
<g id="clust2" class="cluster">
<title>cluster_NgSmartLibModule_declarations</title>
<polygon fill="none" stroke="black" points="152,-143 152,-195 846,-195 846,-143 152,-143"/>
</g>
<g id="clust5" class="cluster">
<title>cluster_NgSmartLibModule_NgCategorySelectorComponent_providers</title>
<polygon fill="none" stroke="black" points="267,-78 267,-130 621,-130 621,-78 267,-78"/>
</g>
<g id="clust7" class="cluster">
<title>cluster_NgSmartLibModule_imports</title>
<polygon fill="none" stroke="black" points="16,-143 16,-195 144,-195 144,-143 16,-143"/>
</g>
<g id="clust8" class="cluster">
<title>cluster_NgSmartLibModule_exports</title>
<polygon fill="none" stroke="black" points="78,-273 78,-325 785,-325 785,-273 78,-273"/>
</g>
<!-- NgAlertComponent -->
<g id="node1" class="node">
<title>NgAlertComponent</title>
<polygon fill="#ffffb3" stroke="black" points="837.7,-187 710.3,-187 710.3,-151 837.7,-151 837.7,-187"/>
<text text-anchor="middle" x="774" y="-164.8" font-family="Times,serif" font-size="14.00">NgAlertComponent</text>
</g>
<!-- NgSmartLibModule -->
<g id="node5" class="node">
<title>NgSmartLibModule</title>
<polygon fill="#8dd3c7" stroke="black" points="508.54,-252 505.54,-256 484.54,-256 481.54,-252 379.46,-252 379.46,-216 508.54,-216 508.54,-252"/>
<text text-anchor="middle" x="444" y="-229.8" font-family="Times,serif" font-size="14.00">NgSmartLibModule</text>
</g>
<!-- NgAlertComponent&#45;&gt;NgSmartLibModule -->
<g id="edge1" class="edge">
<title>NgAlertComponent&#45;&gt;NgSmartLibModule</title>
<path fill="none" stroke="black" d="M743.88,-187.11C743.88,-206.34 743.88,-234 743.88,-234 743.88,-234 518.7,-234 518.7,-234"/>
<polygon fill="black" stroke="black" points="518.7,-230.5 508.7,-234 518.7,-237.5 518.7,-230.5"/>
</g>
<!-- NgTimerComponent -->
<g id="node2" class="node">
<title>NgTimerComponent</title>
<polygon fill="#ffffb3" stroke="black" points="692.15,-187 559.85,-187 559.85,-151 692.15,-151 692.15,-187"/>
<text text-anchor="middle" x="626" y="-164.8" font-family="Times,serif" font-size="14.00">NgTimerComponent</text>
</g>
<!-- NgTimerComponent&#45;&gt;NgSmartLibModule -->
<g id="edge2" class="edge">
<title>NgTimerComponent&#45;&gt;NgSmartLibModule</title>
<path fill="none" stroke="black" d="M594.38,-187.03C594.38,-203.4 594.38,-225 594.38,-225 594.38,-225 518.65,-225 518.65,-225"/>
<polygon fill="black" stroke="black" points="518.65,-221.5 508.65,-225 518.65,-228.5 518.65,-221.5"/>
</g>
<!-- NgCategorySelectorComponent -->
<g id="node3" class="node">
<title>NgCategorySelectorComponent</title>
<polygon fill="#ffffb3" stroke="black" points="541.62,-187 346.38,-187 346.38,-151 541.62,-151 541.62,-187"/>
<text text-anchor="middle" x="444" y="-164.8" font-family="Times,serif" font-size="14.00">NgCategorySelectorComponent</text>
</g>
<!-- NgCategorySelectorComponent&#45;&gt;NgSmartLibModule -->
<g id="edge3" class="edge">
<title>NgCategorySelectorComponent&#45;&gt;NgSmartLibModule</title>
<path fill="none" stroke="black" d="M444,-187.11C444,-187.11 444,-205.99 444,-205.99"/>
<polygon fill="black" stroke="black" points="440.5,-205.99 444,-215.99 447.5,-205.99 440.5,-205.99"/>
</g>
<!-- NgCategorySetComponent -->
<g id="node4" class="node">
<title>NgCategorySetComponent</title>
<polygon fill="#ffffb3" stroke="black" points="327.64,-187 160.36,-187 160.36,-151 327.64,-151 327.64,-187"/>
<text text-anchor="middle" x="244" y="-164.8" font-family="Times,serif" font-size="14.00">NgCategorySetComponent</text>
</g>
<!-- NgCategorySetComponent&#45;&gt;NgSmartLibModule -->
<g id="edge5" class="edge">
<title>NgCategorySetComponent&#45;&gt;NgSmartLibModule</title>
<path fill="none" stroke="black" d="M301.63,-187.03C301.63,-203.4 301.63,-225 301.63,-225 301.63,-225 369.06,-225 369.06,-225"/>
<polygon fill="black" stroke="black" points="369.06,-228.5 379.06,-225 369.06,-221.5 369.06,-228.5"/>
</g>
<!-- NgAlertComponent  -->
<g id="node8" class="node">
<title>NgAlertComponent </title>
<polygon fill="#fb8072" stroke="black" points="777.2,-317 646.8,-317 646.8,-281 777.2,-281 777.2,-317"/>
<text text-anchor="middle" x="712" y="-294.8" font-family="Times,serif" font-size="14.00">NgAlertComponent </text>
</g>
<!-- NgSmartLibModule&#45;&gt;NgAlertComponent  -->
<g id="edge7" class="edge">
<title>NgSmartLibModule&#45;&gt;NgAlertComponent </title>
<path fill="none" stroke="black" stroke-dasharray="5,2" d="M508.62,-243C575.25,-243 669.49,-243 669.49,-243 669.49,-243 669.49,-270.97 669.49,-270.97"/>
<polygon fill="black" stroke="black" points="665.99,-270.97 669.49,-280.97 672.99,-270.97 665.99,-270.97"/>
</g>
<!-- NgTimerComponent  -->
<g id="node9" class="node">
<title>NgTimerComponent </title>
<polygon fill="#fb8072" stroke="black" points="629.15,-317 492.85,-317 492.85,-281 629.15,-281 629.15,-317"/>
<text text-anchor="middle" x="561" y="-294.8" font-family="Times,serif" font-size="14.00">NgTimerComponent </text>
</g>
<!-- NgSmartLibModule&#45;&gt;NgTimerComponent  -->
<g id="edge8" class="edge">
<title>NgSmartLibModule&#45;&gt;NgTimerComponent </title>
<path fill="none" stroke="black" stroke-dasharray="5,2" d="M500.85,-252.11C500.85,-252.11 500.85,-270.99 500.85,-270.99"/>
<polygon fill="black" stroke="black" points="497.35,-270.99 500.85,-280.99 504.35,-270.99 497.35,-270.99"/>
</g>
<!-- NgCategorySelectorComponent  -->
<g id="node10" class="node">
<title>NgCategorySelectorComponent </title>
<polygon fill="#fb8072" stroke="black" points="474.62,-317 275.38,-317 275.38,-281 474.62,-281 474.62,-317"/>
<text text-anchor="middle" x="375" y="-294.8" font-family="Times,serif" font-size="14.00">NgCategorySelectorComponent </text>
</g>
<!-- NgSmartLibModule&#45;&gt;NgCategorySelectorComponent  -->
<g id="edge9" class="edge">
<title>NgSmartLibModule&#45;&gt;NgCategorySelectorComponent </title>
<path fill="none" stroke="black" stroke-dasharray="5,2" d="M426.9,-252.11C426.9,-252.11 426.9,-270.99 426.9,-270.99"/>
<polygon fill="black" stroke="black" points="423.4,-270.99 426.9,-280.99 430.4,-270.99 423.4,-270.99"/>
</g>
<!-- NgCategorySetComponent  -->
<g id="node11" class="node">
<title>NgCategorySetComponent </title>
<polygon fill="#fb8072" stroke="black" points="257.64,-317 86.36,-317 86.36,-281 257.64,-281 257.64,-317"/>
<text text-anchor="middle" x="172" y="-294.8" font-family="Times,serif" font-size="14.00">NgCategorySetComponent </text>
</g>
<!-- NgSmartLibModule&#45;&gt;NgCategorySetComponent  -->
<g id="edge10" class="edge">
<title>NgSmartLibModule&#45;&gt;NgCategorySetComponent </title>
<path fill="none" stroke="black" stroke-dasharray="5,2" d="M379.44,-243C309.83,-243 208.88,-243 208.88,-243 208.88,-243 208.88,-270.97 208.88,-270.97"/>
<polygon fill="black" stroke="black" points="205.38,-270.97 208.88,-280.97 212.38,-270.97 205.38,-270.97"/>
</g>
<!-- CATEGORY_CONTROL_ACCESSOR -->
<g id="node6" class="node">
<title>CATEGORY_CONTROL_ACCESSOR</title>
<ellipse fill="#fdb462" stroke="black" cx="444" cy="-104" rx="168.5" ry="18"/>
<text text-anchor="middle" x="444" y="-99.8" font-family="Times,serif" font-size="14.00">CATEGORY_CONTROL_ACCESSOR</text>
</g>
<!-- CATEGORY_CONTROL_ACCESSOR&#45;&gt;NgCategorySelectorComponent -->
<g id="edge4" class="edge">
<title>CATEGORY_CONTROL_ACCESSOR&#45;&gt;NgCategorySelectorComponent</title>
<path fill="none" stroke="black" d="M444,-122.11C444,-122.11 444,-140.99 444,-140.99"/>
<polygon fill="black" stroke="black" points="440.5,-140.99 444,-150.99 447.5,-140.99 440.5,-140.99"/>
</g>
<!-- CommonModule -->
<g id="node7" class="node">
<title>CommonModule</title>
<polygon fill="#8dd3c7" stroke="black" points="135.67,-187 132.67,-191 111.67,-191 108.67,-187 24.33,-187 24.33,-151 135.67,-151 135.67,-187"/>
<text text-anchor="middle" x="80" y="-164.8" font-family="Times,serif" font-size="14.00">CommonModule</text>
</g>
<!-- CommonModule&#45;&gt;NgSmartLibModule -->
<g id="edge6" class="edge">
<title>CommonModule&#45;&gt;NgSmartLibModule</title>
<path fill="none" stroke="black" d="M111.13,-187.11C111.13,-206.34 111.13,-234 111.13,-234 111.13,-234 369.42,-234 369.42,-234"/>
<polygon fill="black" stroke="black" points="369.42,-237.5 379.42,-234 369.42,-230.5 369.42,-237.5"/>
</g>
</g>
</svg>
