<?xml version="1.0" encoding="UTF-8" standalone="no"?>
<!DOCTYPE svg PUBLIC "-//W3C//DTD SVG 1.1//EN"
 "http://www.w3.org/Graphics/SVG/1.1/DTD/svg11.dtd">
<!-- Generated by graphviz version 2.47.0 (20210316.0004)
 -->
<!-- Title: dependencies Pages: 1 -->
<svg width="504pt" height="284pt"
 viewBox="0.00 0.00 504.00 284.00" xmlns="http://www.w3.org/2000/svg" xmlns:xlink="http://www.w3.org/1999/xlink">
<g id="graph0" class="graph" transform="scale(1 1) rotate(0) translate(4 280)">
<title>dependencies</title>
<polygon fill="white" stroke="transparent" points="-4,4 -4,-280 500,-280 500,4 -4,4"/>
<text text-anchor="start" x="227.01" y="-42.4" font-family="sans-serif" font-weight="bold" font-size="14.00">Legend</text>
<polygon fill="#ffffb3" stroke="transparent" points="14,-10 14,-30 34,-30 34,-10 14,-10"/>
<text text-anchor="start" x="37.63" y="-15.4" font-family="sans-serif" font-size="14.00"> &#160;Declarations</text>
<polygon fill="#8dd3c7" stroke="transparent" points="127,-10 127,-30 147,-30 147,-10 127,-10"/>
<text text-anchor="start" x="150.73" y="-15.4" font-family="sans-serif" font-size="14.00"> &#160;Module</text>
<polygon fill="#80b1d3" stroke="transparent" points="213,-10 213,-30 233,-30 233,-10 213,-10"/>
<text text-anchor="start" x="236.78" y="-15.4" font-family="sans-serif" font-size="14.00"> &#160;Bootstrap</text>
<polygon fill="#fdb462" stroke="transparent" points="310,-10 310,-30 330,-30 330,-10 310,-10"/>
<text text-anchor="start" x="333.67" y="-15.4" font-family="sans-serif" font-size="14.00"> &#160;Providers</text>
<polygon fill="#fb8072" stroke="transparent" points="406,-10 406,-30 426,-30 426,-10 406,-10"/>
<text text-anchor="start" x="429.73" y="-15.4" font-family="sans-serif" font-size="14.00"> &#160;Exports</text>
<g id="clust1" class="cluster">
<title>cluster_NgSmartLibModule</title>
<polygon fill="none" stroke="black" stroke-dasharray="1,5" points="15.5,-70 15.5,-268 480.5,-268 480.5,-70 15.5,-70"/>
</g>
<g id="clust2" class="cluster">
<title>cluster_NgSmartLibModule_declarations</title>
<polygon fill="none" stroke="black" points="159.5,-78 159.5,-130 472.5,-130 472.5,-78 159.5,-78"/>
</g>
<g id="clust5" class="cluster">
<title>cluster_NgSmartLibModule_imports</title>
<polygon fill="none" stroke="black" points="23.5,-78 23.5,-130 151.5,-130 151.5,-78 23.5,-78"/>
</g>
<g id="clust6" class="cluster">
<title>cluster_NgSmartLibModule_exports</title>
<polygon fill="none" stroke="black" points="88.5,-208 88.5,-260 407.5,-260 407.5,-208 88.5,-208"/>
</g>
<!-- NgSmartLibComponent -->
<g id="node1" class="node">
<title>NgSmartLibComponent</title>
<polygon fill="#ffffb3" stroke="black" points="464.32,-122 312.68,-122 312.68,-86 464.32,-86 464.32,-122"/>
<text text-anchor="middle" x="388.5" y="-99.8" font-family="Times,serif" font-size="14.00">NgSmartLibComponent</text>
</g>
<!-- NgSmartLibModule -->
<g id="node3" class="node">
<title>NgSmartLibModule</title>
<polygon fill="#8dd3c7" stroke="black" points="296.04,-187 293.04,-191 272.04,-191 269.04,-187 166.96,-187 166.96,-151 296.04,-151 296.04,-187"/>
<text text-anchor="middle" x="231.5" y="-164.8" font-family="Times,serif" font-size="14.00">NgSmartLibModule</text>
</g>
<!-- NgSmartLibComponent&#45;&gt;NgSmartLibModule -->
<g id="edge1" class="edge">
<title>NgSmartLibComponent&#45;&gt;NgSmartLibModule</title>
<path fill="none" stroke="black" d="M356.38,-122.11C356.38,-141.34 356.38,-169 356.38,-169 356.38,-169 306.13,-169 306.13,-169"/>
<polygon fill="black" stroke="black" points="306.13,-165.5 296.13,-169 306.13,-172.5 306.13,-165.5"/>
</g>
<!-- NgAlertComponent -->
<g id="node2" class="node">
<title>NgAlertComponent</title>
<polygon fill="#ffffb3" stroke="black" points="295.2,-122 167.8,-122 167.8,-86 295.2,-86 295.2,-122"/>
<text text-anchor="middle" x="231.5" y="-99.8" font-family="Times,serif" font-size="14.00">NgAlertComponent</text>
</g>
<!-- NgAlertComponent&#45;&gt;NgSmartLibModule -->
<g id="edge2" class="edge">
<title>NgAlertComponent&#45;&gt;NgSmartLibModule</title>
<path fill="none" stroke="black" d="M231.5,-122.11C231.5,-122.11 231.5,-140.99 231.5,-140.99"/>
<polygon fill="black" stroke="black" points="228,-140.99 231.5,-150.99 235,-140.99 228,-140.99"/>
</g>
<!-- NgSmartLibComponent  -->
<g id="node5" class="node">
<title>NgSmartLibComponent </title>
<polygon fill="#fb8072" stroke="black" points="399.82,-252 245.18,-252 245.18,-216 399.82,-216 399.82,-252"/>
<text text-anchor="middle" x="322.5" y="-229.8" font-family="Times,serif" font-size="14.00">NgSmartLibComponent </text>
</g>
<!-- NgSmartLibModule&#45;&gt;NgSmartLibComponent  -->
<g id="edge4" class="edge">
<title>NgSmartLibModule&#45;&gt;NgSmartLibComponent </title>
<path fill="none" stroke="black" stroke-dasharray="5,2" d="M270.68,-187.11C270.68,-187.11 270.68,-205.99 270.68,-205.99"/>
<polygon fill="black" stroke="black" points="267.18,-205.99 270.68,-215.99 274.18,-205.99 267.18,-205.99"/>
</g>
<!-- NgAlertComponent  -->
<g id="node6" class="node">
<title>NgAlertComponent </title>
<polygon fill="#fb8072" stroke="black" points="226.7,-252 96.3,-252 96.3,-216 226.7,-216 226.7,-252"/>
<text text-anchor="middle" x="161.5" y="-229.8" font-family="Times,serif" font-size="14.00">NgAlertComponent </text>
</g>
<!-- NgSmartLibModule&#45;&gt;NgAlertComponent  -->
<g id="edge5" class="edge">
<title>NgSmartLibModule&#45;&gt;NgAlertComponent </title>
<path fill="none" stroke="black" stroke-dasharray="5,2" d="M196.79,-187.11C196.79,-187.11 196.79,-205.99 196.79,-205.99"/>
<polygon fill="black" stroke="black" points="193.29,-205.99 196.79,-215.99 200.29,-205.99 193.29,-205.99"/>
</g>
<!-- CommonModule -->
<g id="node4" class="node">
<title>CommonModule</title>
<polygon fill="#8dd3c7" stroke="black" points="143.17,-122 140.17,-126 119.17,-126 116.17,-122 31.83,-122 31.83,-86 143.17,-86 143.17,-122"/>
<text text-anchor="middle" x="87.5" y="-99.8" font-family="Times,serif" font-size="14.00">CommonModule</text>
</g>
<!-- CommonModule&#45;&gt;NgSmartLibModule -->
<g id="edge3" class="edge">
<title>CommonModule&#45;&gt;NgSmartLibModule</title>
<path fill="none" stroke="black" d="M119.74,-122.11C119.74,-141.34 119.74,-169 119.74,-169 119.74,-169 156.81,-169 156.81,-169"/>
<polygon fill="black" stroke="black" points="156.81,-172.5 166.81,-169 156.81,-165.5 156.81,-172.5"/>
</g>
</g>
</svg>
