<?xml version="1.0" encoding="UTF-8" standalone="no"?>
<!DOCTYPE svg PUBLIC "-//W3C//DTD SVG 1.1//EN"
 "http://www.w3.org/Graphics/SVG/1.1/DTD/svg11.dtd">
<!-- Generated by graphviz version 2.47.0 (20210316.0004)
 -->
<!-- Title: dependencies Pages: 1 -->
<svg width="504pt" height="284pt"
 viewBox="0.00 0.00 504.00 284.00" xmlns="http://www.w3.org/2000/svg" xmlns:xlink="http://www.w3.org/1999/xlink">
<g id="graph0" class="graph" transform="scale(1 1) rotate(0) translate(4 280)">
<title>dependencies</title>
<polygon fill="white" stroke="transparent" points="-4,4 -4,-280 500,-280 500,4 -4,4"/>
<text text-anchor="start" x="227.01" y="-42.4" font-family="sans-serif" font-weight="bold" font-size="14.00">Legend</text>
<polygon fill="#ffffb3" stroke="transparent" points="14,-10 14,-30 34,-30 34,-10 14,-10"/>
<text text-anchor="start" x="37.63" y="-15.4" font-family="sans-serif" font-size="14.00"> &#160;Declarations</text>
<polygon fill="#8dd3c7" stroke="transparent" points="127,-10 127,-30 147,-30 147,-10 127,-10"/>
<text text-anchor="start" x="150.73" y="-15.4" font-family="sans-serif" font-size="14.00"> &#160;Module</text>
<polygon fill="#80b1d3" stroke="transparent" points="213,-10 213,-30 233,-30 233,-10 213,-10"/>
<text text-anchor="start" x="236.78" y="-15.4" font-family="sans-serif" font-size="14.00"> &#160;Bootstrap</text>
<polygon fill="#fdb462" stroke="transparent" points="310,-10 310,-30 330,-30 330,-10 310,-10"/>
<text text-anchor="start" x="333.67" y="-15.4" font-family="sans-serif" font-size="14.00"> &#160;Providers</text>
<polygon fill="#fb8072" stroke="transparent" points="406,-10 406,-30 426,-30 426,-10 406,-10"/>
<text text-anchor="start" x="429.73" y="-15.4" font-family="sans-serif" font-size="14.00"> &#160;Exports</text>
<g id="clust1" class="cluster">
<title>cluster_NgSmartLibModule</title>
<polygon fill="none" stroke="black" stroke-dasharray="1,5" points="15.5,-70 15.5,-268 480.5,-268 480.5,-70 15.5,-70"/>
</g>
<g id="clust6" class="cluster">
<title>cluster_NgSmartLibModule_exports</title>
<polygon fill="none" stroke="black" points="88.5,-208 88.5,-260 407.5,-260 407.5,-208 88.5,-208"/>
</g>
<g id="clust5" class="cluster">
<title>cluster_NgSmartLibModule_imports</title>
<polygon fill="none" stroke="black" points="344.5,-78 344.5,-130 472.5,-130 472.5,-78 344.5,-78"/>
</g>
<g id="clust2" class="cluster">
<title>cluster_NgSmartLibModule_declarations</title>
<polygon fill="none" stroke="black" points="23.5,-78 23.5,-130 336.5,-130 336.5,-78 23.5,-78"/>
</g>
<!-- NgSmartLibComponent -->
<g id="node1" class="node">
<title>NgSmartLibComponent</title>
<polygon fill="#ffffb3" stroke="black" points="328.32,-122 176.68,-122 176.68,-86 328.32,-86 328.32,-122"/>
<text text-anchor="middle" x="252.5" y="-99.8" font-family="Times,serif" font-size="14.00">NgSmartLibComponent</text>
</g>
<!-- NgSmartLibModule -->
<g id="node3" class="node">
<title>NgSmartLibModule</title>
<polygon fill="#8dd3c7" stroke="black" points="317.04,-187 314.04,-191 293.04,-191 290.04,-187 187.96,-187 187.96,-151 317.04,-151 317.04,-187"/>
<text text-anchor="middle" x="252.5" y="-164.8" font-family="Times,serif" font-size="14.00">NgSmartLibModule</text>
</g>
<!-- NgSmartLibComponent&#45;&gt;NgSmartLibModule -->
<g id="edge1" class="edge">
<title>NgSmartLibComponent&#45;&gt;NgSmartLibModule</title>
<path fill="none" stroke="black" d="M252.5,-122.11C252.5,-122.11 252.5,-140.99 252.5,-140.99"/>
<polygon fill="black" stroke="black" points="249,-140.99 252.5,-150.99 256,-140.99 249,-140.99"/>
</g>
<!-- NgAlertComponent -->
<g id="node2" class="node">
<title>NgAlertComponent</title>
<polygon fill="#ffffb3" stroke="black" points="159.2,-122 31.8,-122 31.8,-86 159.2,-86 159.2,-122"/>
<text text-anchor="middle" x="95.5" y="-99.8" font-family="Times,serif" font-size="14.00">NgAlertComponent</text>
</g>
<!-- NgAlertComponent&#45;&gt;NgSmartLibModule -->
<g id="edge2" class="edge">
<title>NgAlertComponent&#45;&gt;NgSmartLibModule</title>
<path fill="none" stroke="black" d="M127.62,-122.11C127.62,-141.34 127.62,-169 127.62,-169 127.62,-169 177.87,-169 177.87,-169"/>
<polygon fill="black" stroke="black" points="177.87,-172.5 187.87,-169 177.87,-165.5 177.87,-172.5"/>
</g>
<!-- NgSmartLibComponent  -->
<g id="node5" class="node">
<title>NgSmartLibComponent </title>
<polygon fill="#fb8072" stroke="black" points="399.82,-252 245.18,-252 245.18,-216 399.82,-216 399.82,-252"/>
<text text-anchor="middle" x="322.5" y="-229.8" font-family="Times,serif" font-size="14.00">NgSmartLibComponent </text>
</g>
<!-- NgSmartLibModule&#45;&gt;NgSmartLibComponent  -->
<g id="edge4" class="edge">
<title>NgSmartLibModule&#45;&gt;NgSmartLibComponent </title>
<path fill="none" stroke="black" stroke-dasharray="5,2" d="M281.18,-187.11C281.18,-187.11 281.18,-205.99 281.18,-205.99"/>
<polygon fill="black" stroke="black" points="277.68,-205.99 281.18,-215.99 284.68,-205.99 277.68,-205.99"/>
</g>
<!-- NgAlertComponent  -->
<g id="node6" class="node">
<title>NgAlertComponent </title>
<polygon fill="#fb8072" stroke="black" points="226.7,-252 96.3,-252 96.3,-216 226.7,-216 226.7,-252"/>
<text text-anchor="middle" x="161.5" y="-229.8" font-family="Times,serif" font-size="14.00">NgAlertComponent </text>
</g>
<!-- NgSmartLibModule&#45;&gt;NgAlertComponent  -->
<g id="edge5" class="edge">
<title>NgSmartLibModule&#45;&gt;NgAlertComponent </title>
<path fill="none" stroke="black" stroke-dasharray="5,2" d="M207.29,-187.11C207.29,-187.11 207.29,-205.99 207.29,-205.99"/>
<polygon fill="black" stroke="black" points="203.79,-205.99 207.29,-215.99 210.79,-205.99 203.79,-205.99"/>
</g>
<!-- CommonModule -->
<g id="node4" class="node">
<title>CommonModule</title>
<polygon fill="#8dd3c7" stroke="black" points="464.17,-122 461.17,-126 440.17,-126 437.17,-122 352.83,-122 352.83,-86 464.17,-86 464.17,-122"/>
<text text-anchor="middle" x="408.5" y="-99.8" font-family="Times,serif" font-size="14.00">CommonModule</text>
</g>
<!-- CommonModule&#45;&gt;NgSmartLibModule -->
<g id="edge3" class="edge">
<title>CommonModule&#45;&gt;NgSmartLibModule</title>
<path fill="none" stroke="black" d="M376.29,-122.11C376.29,-141.34 376.29,-169 376.29,-169 376.29,-169 327.29,-169 327.29,-169"/>
<polygon fill="black" stroke="black" points="327.29,-165.5 317.29,-169 327.29,-172.5 327.29,-165.5"/>
</g>
</g>
</svg>
