<?xml version="1.0" encoding="UTF-8" standalone="no"?>
<!DOCTYPE svg PUBLIC "-//W3C//DTD SVG 1.1//EN"
 "http://www.w3.org/Graphics/SVG/1.1/DTD/svg11.dtd">
<!-- Generated by graphviz version 2.47.0 (20210316.0004)
 -->
<!-- Title: dependencies Pages: 1 -->
<svg width="1018pt" height="349pt"
 viewBox="0.00 0.00 1018.00 349.00" xmlns="http://www.w3.org/2000/svg" xmlns:xlink="http://www.w3.org/1999/xlink">
<g id="graph0" class="graph" transform="scale(1 1) rotate(0) translate(4 345)">
<title>dependencies</title>
<polygon fill="white" stroke="transparent" points="-4,4 -4,-345 1014,-345 1014,4 -4,4"/>
<text text-anchor="start" x="484.01" y="-42.4" font-family="sans-serif" font-weight="bold" font-size="14.00">Legend</text>
<polygon fill="#ffffb3" stroke="transparent" points="271,-10 271,-30 291,-30 291,-10 271,-10"/>
<text text-anchor="start" x="294.63" y="-15.4" font-family="sans-serif" font-size="14.00"> &#160;Declarations</text>
<polygon fill="#8dd3c7" stroke="transparent" points="384,-10 384,-30 404,-30 404,-10 384,-10"/>
<text text-anchor="start" x="407.73" y="-15.4" font-family="sans-serif" font-size="14.00"> &#160;Module</text>
<polygon fill="#80b1d3" stroke="transparent" points="470,-10 470,-30 490,-30 490,-10 470,-10"/>
<text text-anchor="start" x="493.78" y="-15.4" font-family="sans-serif" font-size="14.00"> &#160;Bootstrap</text>
<polygon fill="#fdb462" stroke="transparent" points="567,-10 567,-30 587,-30 587,-10 567,-10"/>
<text text-anchor="start" x="590.67" y="-15.4" font-family="sans-serif" font-size="14.00"> &#160;Providers</text>
<polygon fill="#fb8072" stroke="transparent" points="663,-10 663,-30 683,-30 683,-10 663,-10"/>
<text text-anchor="start" x="686.73" y="-15.4" font-family="sans-serif" font-size="14.00"> &#160;Exports</text>
<g id="clust1" class="cluster">
<title>cluster_NgSmartLibModule</title>
<polygon fill="none" stroke="black" stroke-dasharray="1,5" points="8,-70 8,-333 1002,-333 1002,-70 8,-70"/>
</g>
<g id="clust7" class="cluster">
<title>cluster_NgSmartLibModule_imports</title>
<polygon fill="none" stroke="black" points="866,-143 866,-195 994,-195 994,-143 866,-143"/>
</g>
<g id="clust5" class="cluster">
<title>cluster_NgSmartLibModule_NgCategorySelectorComponent_providers</title>
<polygon fill="none" stroke="black" points="504,-78 504,-195 858,-195 858,-78 504,-78"/>
</g>
<g id="clust2" class="cluster">
<title>cluster_NgSmartLibModule_declarations</title>
<polygon fill="none" stroke="black" points="16,-143 16,-195 496,-195 496,-143 16,-143"/>
</g>
<g id="clust8" class="cluster">
<title>cluster_NgSmartLibModule_exports</title>
<polygon fill="none" stroke="black" points="72,-273 72,-325 779,-325 779,-273 72,-273"/>
</g>
<!-- NgAlertComponent -->
<g id="node1" class="node">
<title>NgAlertComponent</title>
<polygon fill="#ffffb3" stroke="black" points="487.7,-187 360.3,-187 360.3,-151 487.7,-151 487.7,-187"/>
<text text-anchor="middle" x="424" y="-164.8" font-family="Times,serif" font-size="14.00">NgAlertComponent</text>
</g>
<!-- NgSmartLibModule -->
<g id="node5" class="node">
<title>NgSmartLibModule</title>
<polygon fill="#8dd3c7" stroke="black" points="488.54,-252 485.54,-256 464.54,-256 461.54,-252 359.46,-252 359.46,-216 488.54,-216 488.54,-252"/>
<text text-anchor="middle" x="424" y="-229.8" font-family="Times,serif" font-size="14.00">NgSmartLibModule</text>
</g>
<!-- NgAlertComponent&#45;&gt;NgSmartLibModule -->
<g id="edge1" class="edge">
<title>NgAlertComponent&#45;&gt;NgSmartLibModule</title>
<path fill="none" stroke="black" d="M424,-187.11C424,-187.11 424,-205.99 424,-205.99"/>
<polygon fill="black" stroke="black" points="420.5,-205.99 424,-215.99 427.5,-205.99 420.5,-205.99"/>
</g>
<!-- NgTimerComponent -->
<g id="node2" class="node">
<title>NgTimerComponent</title>
<polygon fill="#ffffb3" stroke="black" points="342.15,-187 209.85,-187 209.85,-151 342.15,-151 342.15,-187"/>
<text text-anchor="middle" x="276" y="-164.8" font-family="Times,serif" font-size="14.00">NgTimerComponent</text>
</g>
<!-- NgTimerComponent&#45;&gt;NgSmartLibModule -->
<g id="edge2" class="edge">
<title>NgTimerComponent&#45;&gt;NgSmartLibModule</title>
<path fill="none" stroke="black" d="M305.88,-187.03C305.88,-203.4 305.88,-225 305.88,-225 305.88,-225 349.41,-225 349.41,-225"/>
<polygon fill="black" stroke="black" points="349.41,-228.5 359.41,-225 349.41,-221.5 349.41,-228.5"/>
</g>
<!-- NgCategorySelectorComponent -->
<g id="node3" class="node">
<title>NgCategorySelectorComponent</title>
<polygon fill="#ffffb3" stroke="black" points="742.62,-187 547.38,-187 547.38,-151 742.62,-151 742.62,-187"/>
<text text-anchor="middle" x="645" y="-164.8" font-family="Times,serif" font-size="14.00">NgCategorySelectorComponent</text>
</g>
<!-- NgCategorySelectorComponent&#45;&gt;NgSmartLibModule -->
<g id="edge3" class="edge">
<title>NgCategorySelectorComponent&#45;&gt;NgSmartLibModule</title>
<path fill="none" stroke="black" d="M585.13,-187.03C585.13,-203.4 585.13,-225 585.13,-225 585.13,-225 498.61,-225 498.61,-225"/>
<polygon fill="black" stroke="black" points="498.61,-221.5 488.61,-225 498.61,-228.5 498.61,-221.5"/>
</g>
<!-- NgCategorySetComponent -->
<g id="node4" class="node">
<title>NgCategorySetComponent</title>
<polygon fill="#ffffb3" stroke="black" points="191.64,-187 24.36,-187 24.36,-151 191.64,-151 191.64,-187"/>
<text text-anchor="middle" x="108" y="-164.8" font-family="Times,serif" font-size="14.00">NgCategorySetComponent</text>
</g>
<!-- NgCategorySetComponent&#45;&gt;NgSmartLibModule -->
<g id="edge5" class="edge">
<title>NgCategorySetComponent&#45;&gt;NgSmartLibModule</title>
<path fill="none" stroke="black" d="M136.12,-187.11C136.12,-206.34 136.12,-234 136.12,-234 136.12,-234 349.4,-234 349.4,-234"/>
<polygon fill="black" stroke="black" points="349.4,-237.5 359.4,-234 349.4,-230.5 349.4,-237.5"/>
</g>
<!-- NgAlertComponent  -->
<g id="node8" class="node">
<title>NgAlertComponent </title>
<polygon fill="#fb8072" stroke="black" points="771.2,-317 640.8,-317 640.8,-281 771.2,-281 771.2,-317"/>
<text text-anchor="middle" x="706" y="-294.8" font-family="Times,serif" font-size="14.00">NgAlertComponent </text>
</g>
<!-- NgSmartLibModule&#45;&gt;NgAlertComponent  -->
<g id="edge7" class="edge">
<title>NgSmartLibModule&#45;&gt;NgAlertComponent </title>
<path fill="none" stroke="black" stroke-dasharray="5,2" d="M488.81,-243C568.05,-243 691.73,-243 691.73,-243 691.73,-243 691.73,-270.97 691.73,-270.97"/>
<polygon fill="black" stroke="black" points="688.23,-270.97 691.73,-280.97 695.23,-270.97 688.23,-270.97"/>
</g>
<!-- NgTimerComponent  -->
<g id="node9" class="node">
<title>NgTimerComponent </title>
<polygon fill="#fb8072" stroke="black" points="623.15,-317 486.85,-317 486.85,-281 623.15,-281 623.15,-317"/>
<text text-anchor="middle" x="555" y="-294.8" font-family="Times,serif" font-size="14.00">NgTimerComponent </text>
</g>
<!-- NgSmartLibModule&#45;&gt;NgTimerComponent  -->
<g id="edge8" class="edge">
<title>NgSmartLibModule&#45;&gt;NgTimerComponent </title>
<path fill="none" stroke="black" stroke-dasharray="5,2" d="M477.74,-252.11C477.74,-271.34 477.74,-299 477.74,-299 477.74,-299 478.66,-299 478.66,-299"/>
<polygon fill="black" stroke="black" points="476.91,-302.5 486.91,-299 476.91,-295.5 476.91,-302.5"/>
</g>
<!-- NgCategorySelectorComponent  -->
<g id="node10" class="node">
<title>NgCategorySelectorComponent </title>
<polygon fill="#fb8072" stroke="black" points="468.62,-317 269.38,-317 269.38,-281 468.62,-281 468.62,-317"/>
<text text-anchor="middle" x="369" y="-294.8" font-family="Times,serif" font-size="14.00">NgCategorySelectorComponent </text>
</g>
<!-- NgSmartLibModule&#45;&gt;NgCategorySelectorComponent  -->
<g id="edge9" class="edge">
<title>NgSmartLibModule&#45;&gt;NgCategorySelectorComponent </title>
<path fill="none" stroke="black" stroke-dasharray="5,2" d="M413.9,-252.11C413.9,-252.11 413.9,-270.99 413.9,-270.99"/>
<polygon fill="black" stroke="black" points="410.4,-270.99 413.9,-280.99 417.4,-270.99 410.4,-270.99"/>
</g>
<!-- NgCategorySetComponent  -->
<g id="node11" class="node">
<title>NgCategorySetComponent </title>
<polygon fill="#fb8072" stroke="black" points="251.64,-317 80.36,-317 80.36,-281 251.64,-281 251.64,-317"/>
<text text-anchor="middle" x="166" y="-294.8" font-family="Times,serif" font-size="14.00">NgCategorySetComponent </text>
</g>
<!-- NgSmartLibModule&#45;&gt;NgCategorySetComponent  -->
<g id="edge10" class="edge">
<title>NgSmartLibModule&#45;&gt;NgCategorySetComponent </title>
<path fill="none" stroke="black" stroke-dasharray="5,2" d="M359.34,-243C303.12,-243 230.62,-243 230.62,-243 230.62,-243 230.62,-270.97 230.62,-270.97"/>
<polygon fill="black" stroke="black" points="227.12,-270.97 230.62,-280.97 234.12,-270.97 227.12,-270.97"/>
</g>
<!-- CATEGORY_CONTROL_ACCESSOR -->
<g id="node6" class="node">
<title>CATEGORY_CONTROL_ACCESSOR</title>
<ellipse fill="#fdb462" stroke="black" cx="681" cy="-104" rx="168.5" ry="18"/>
<text text-anchor="middle" x="681" y="-99.8" font-family="Times,serif" font-size="14.00">CATEGORY_CONTROL_ACCESSOR</text>
</g>
<!-- CATEGORY_CONTROL_ACCESSOR&#45;&gt;NgCategorySelectorComponent -->
<g id="edge4" class="edge">
<title>CATEGORY_CONTROL_ACCESSOR&#45;&gt;NgCategorySelectorComponent</title>
<path fill="none" stroke="black" d="M645,-121.76C645,-121.76 645,-140.81 645,-140.81"/>
<polygon fill="black" stroke="black" points="641.5,-140.81 645,-150.81 648.5,-140.81 641.5,-140.81"/>
</g>
<!-- CommonModule -->
<g id="node7" class="node">
<title>CommonModule</title>
<polygon fill="#8dd3c7" stroke="black" points="985.67,-187 982.67,-191 961.67,-191 958.67,-187 874.33,-187 874.33,-151 985.67,-151 985.67,-187"/>
<text text-anchor="middle" x="930" y="-164.8" font-family="Times,serif" font-size="14.00">CommonModule</text>
</g>
<!-- CommonModule&#45;&gt;NgSmartLibModule -->
<g id="edge6" class="edge">
<title>CommonModule&#45;&gt;NgSmartLibModule</title>
<path fill="none" stroke="black" d="M930,-187.11C930,-206.34 930,-234 930,-234 930,-234 498.6,-234 498.6,-234"/>
<polygon fill="black" stroke="black" points="498.6,-230.5 488.6,-234 498.6,-237.5 498.6,-230.5"/>
</g>
</g>
</svg>
