<?xml version="1.0" encoding="UTF-8" standalone="no"?>
<!DOCTYPE svg PUBLIC "-//W3C//DTD SVG 1.1//EN"
 "http://www.w3.org/Graphics/SVG/1.1/DTD/svg11.dtd">
<!-- Generated by graphviz version 2.47.0 (20210316.0004)
 -->
<!-- Title: dependencies Pages: 1 -->
<svg width="504pt" height="284pt"
 viewBox="0.00 0.00 504.00 284.00" xmlns="http://www.w3.org/2000/svg" xmlns:xlink="http://www.w3.org/1999/xlink">
<g id="graph0" class="graph" transform="scale(1 1) rotate(0) translate(4 280)">
<title>dependencies</title>
<polygon fill="white" stroke="transparent" points="-4,4 -4,-280 500,-280 500,4 -4,4"/>
<text text-anchor="start" x="227.01" y="-42.4" font-family="sans-serif" font-weight="bold" font-size="14.00">Legend</text>
<polygon fill="#ffffb3" stroke="transparent" points="14,-10 14,-30 34,-30 34,-10 14,-10"/>
<text text-anchor="start" x="37.63" y="-15.4" font-family="sans-serif" font-size="14.00"> &#160;Declarations</text>
<polygon fill="#8dd3c7" stroke="transparent" points="127,-10 127,-30 147,-30 147,-10 127,-10"/>
<text text-anchor="start" x="150.73" y="-15.4" font-family="sans-serif" font-size="14.00"> &#160;Module</text>
<polygon fill="#80b1d3" stroke="transparent" points="213,-10 213,-30 233,-30 233,-10 213,-10"/>
<text text-anchor="start" x="236.78" y="-15.4" font-family="sans-serif" font-size="14.00"> &#160;Bootstrap</text>
<polygon fill="#fdb462" stroke="transparent" points="310,-10 310,-30 330,-30 330,-10 310,-10"/>
<text text-anchor="start" x="333.67" y="-15.4" font-family="sans-serif" font-size="14.00"> &#160;Providers</text>
<polygon fill="#fb8072" stroke="transparent" points="406,-10 406,-30 426,-30 426,-10 406,-10"/>
<text text-anchor="start" x="429.73" y="-15.4" font-family="sans-serif" font-size="14.00"> &#160;Exports</text>
<g id="clust1" class="cluster">
<title>cluster_NgSmartLibModule</title>
<polygon fill="none" stroke="black" stroke-dasharray="1,5" points="25,-70 25,-268 471,-268 471,-70 25,-70"/>
</g>
<g id="clust2" class="cluster">
<title>cluster_NgSmartLibModule_declarations</title>
<polygon fill="none" stroke="black" points="169,-78 169,-130 463,-130 463,-78 169,-78"/>
</g>
<g id="clust6" class="cluster">
<title>cluster_NgSmartLibModule_exports</title>
<polygon fill="none" stroke="black" points="98,-208 98,-260 398,-260 398,-208 98,-208"/>
</g>
<g id="clust5" class="cluster">
<title>cluster_NgSmartLibModule_imports</title>
<polygon fill="none" stroke="black" points="33,-78 33,-130 161,-130 161,-78 33,-78"/>
</g>
<!-- NgAlertComponent -->
<g id="node1" class="node">
<title>NgAlertComponent</title>
<polygon fill="#ffffb3" stroke="black" points="454.7,-122 327.3,-122 327.3,-86 454.7,-86 454.7,-122"/>
<text text-anchor="middle" x="391" y="-99.8" font-family="Times,serif" font-size="14.00">NgAlertComponent</text>
</g>
<!-- NgSmartLibModule -->
<g id="node3" class="node">
<title>NgSmartLibModule</title>
<polygon fill="#8dd3c7" stroke="black" points="307.54,-187 304.54,-191 283.54,-191 280.54,-187 178.46,-187 178.46,-151 307.54,-151 307.54,-187"/>
<text text-anchor="middle" x="243" y="-164.8" font-family="Times,serif" font-size="14.00">NgSmartLibModule</text>
</g>
<!-- NgAlertComponent&#45;&gt;NgSmartLibModule -->
<g id="edge1" class="edge">
<title>NgAlertComponent&#45;&gt;NgSmartLibModule</title>
<path fill="none" stroke="black" d="M358.88,-122.11C358.88,-141.34 358.88,-169 358.88,-169 358.88,-169 317.71,-169 317.71,-169"/>
<polygon fill="black" stroke="black" points="317.71,-165.5 307.71,-169 317.71,-172.5 317.71,-165.5"/>
</g>
<!-- NgTimerComponent -->
<g id="node2" class="node">
<title>NgTimerComponent</title>
<polygon fill="#ffffb3" stroke="black" points="309.15,-122 176.85,-122 176.85,-86 309.15,-86 309.15,-122"/>
<text text-anchor="middle" x="243" y="-99.8" font-family="Times,serif" font-size="14.00">NgTimerComponent</text>
</g>
<!-- NgTimerComponent&#45;&gt;NgSmartLibModule -->
<g id="edge2" class="edge">
<title>NgTimerComponent&#45;&gt;NgSmartLibModule</title>
<path fill="none" stroke="black" d="M243,-122.11C243,-122.11 243,-140.99 243,-140.99"/>
<polygon fill="black" stroke="black" points="239.5,-140.99 243,-150.99 246.5,-140.99 239.5,-140.99"/>
</g>
<!-- NgAlertComponent  -->
<g id="node5" class="node">
<title>NgAlertComponent </title>
<polygon fill="#fb8072" stroke="black" points="390.2,-252 259.8,-252 259.8,-216 390.2,-216 390.2,-252"/>
<text text-anchor="middle" x="325" y="-229.8" font-family="Times,serif" font-size="14.00">NgAlertComponent </text>
</g>
<!-- NgSmartLibModule&#45;&gt;NgAlertComponent  -->
<g id="edge4" class="edge">
<title>NgSmartLibModule&#45;&gt;NgAlertComponent </title>
<path fill="none" stroke="black" stroke-dasharray="5,2" d="M283.71,-187.11C283.71,-187.11 283.71,-205.99 283.71,-205.99"/>
<polygon fill="black" stroke="black" points="280.21,-205.99 283.71,-215.99 287.21,-205.99 280.21,-205.99"/>
</g>
<!-- NgTimerComponent  -->
<g id="node6" class="node">
<title>NgTimerComponent </title>
<polygon fill="#fb8072" stroke="black" points="242.15,-252 105.85,-252 105.85,-216 242.15,-216 242.15,-252"/>
<text text-anchor="middle" x="174" y="-229.8" font-family="Times,serif" font-size="14.00">NgTimerComponent </text>
</g>
<!-- NgSmartLibModule&#45;&gt;NgTimerComponent  -->
<g id="edge5" class="edge">
<title>NgSmartLibModule&#45;&gt;NgTimerComponent </title>
<path fill="none" stroke="black" stroke-dasharray="5,2" d="M210.15,-187.11C210.15,-187.11 210.15,-205.99 210.15,-205.99"/>
<polygon fill="black" stroke="black" points="206.65,-205.99 210.15,-215.99 213.65,-205.99 206.65,-205.99"/>
</g>
<!-- CommonModule -->
<g id="node4" class="node">
<title>CommonModule</title>
<polygon fill="#8dd3c7" stroke="black" points="152.67,-122 149.67,-126 128.67,-126 125.67,-122 41.33,-122 41.33,-86 152.67,-86 152.67,-122"/>
<text text-anchor="middle" x="97" y="-99.8" font-family="Times,serif" font-size="14.00">CommonModule</text>
</g>
<!-- CommonModule&#45;&gt;NgSmartLibModule -->
<g id="edge3" class="edge">
<title>CommonModule&#45;&gt;NgSmartLibModule</title>
<path fill="none" stroke="black" d="M129.38,-122.11C129.38,-141.34 129.38,-169 129.38,-169 129.38,-169 168.22,-169 168.22,-169"/>
<polygon fill="black" stroke="black" points="168.22,-172.5 178.22,-169 168.22,-165.5 168.22,-172.5"/>
</g>
</g>
</svg>
